# xmcd
#
# Track frame offsets: 
#        150
#        15179
#        39279
#        56238
#        71693
#        90750
#        104571
#        120324
#        136055
#        152221
#        169441
#
# Disc length: 2463 seconds
#
# Revision: 0
# Processed by: cddbd v1.5.2PL0 Copyright (c) Steve Scherf et al.
# Submitted via: ExactAudioCopy v1.0b4
#
DISCID=84099d0b
DTITLE=Stacy Mitchhart - Stacy Mitchhart
DYEAR=2017
DGENRE=Blues
TTITLE0=I Wish He Didn't Trust Me So Much
TTITLE1=Right Next Door
TTITLE2=Late At Night
TTITLE3=Folsom Prison Blues
TTITLE4=I'd Love To Lay You Down
TTITLE5=Salty Dog Blues
TTITLE6=Ain't No Sunshine
TTITLE7=Bring It On Home
TTITLE8=Blue Collar
TTITLE9=I Apologize
TTITLE10=Travelin' Blues
EXTD=
EXTT0=
EXTT1=
EXTT2=
EXTT3=
EXTT4=
EXTT5=
EXTT6=
EXTT7=
EXTT8=
EXTT9=
EXTT10=
PLAYORDER=
